<?xml version="1.0" encoding="UTF-8" standalone="no"?>
<!-- Generator: Adobe Illustrator 16.0.0, SVG Export Plug-In . SVG Version: 6.00 Build 0)  -->

<svg
   version="1.1"
   id="Capa_1"
   x="0px"
   y="0px"
   width="20px"
   height="20px"
   viewBox="0 0 20 20"
   enable-background="new 0 0 20 20"
   xml:space="preserve"
   sodipodi:docname="SNES_button_B.svg"
   inkscape:version="1.4.4 (dcaf3e7d9e, 2026-05-05)"
   xmlns:inkscape="http://www.inkscape.org/namespaces/inkscape"
   xmlns:sodipodi="http://sodipodi.sourceforge.net/DTD/sodipodi-0.dtd"
   xmlns="http://www.w3.org/2000/svg"
   xmlns:svg="http://www.w3.org/2000/svg"><defs
   id="defs5" /><sodipodi:namedview
   id="namedview5"
   pagecolor="#ffffff"
   bordercolor="#000000"
   borderopacity="0.25"
   inkscape:showpageshadow="2"
   inkscape:pageopacity="0.0"
   inkscape:pagecheckerboard="0"
   inkscape:deskcolor="#d1d1d1"
   inkscape:zoom="16"
   inkscape:cx="-7.625"
   inkscape:cy="8.375"
   inkscape:window-width="1920"
   inkscape:window-height="1052"
   inkscape:window-x="0"
   inkscape:window-y="0"
   inkscape:window-maximized="1"
   inkscape:current-layer="g5"
   showguides="true"><sodipodi:guide
     position="0,10"
     orientation="0,-1"
     id="guide6"
     inkscape:locked="false" /><sodipodi:guide
     position="10,20"
     orientation="1,0"
     id="guide7"
     inkscape:locked="false" /><sodipodi:guide
     position="6.2859999,6.664"
     orientation="1,0"
     id="guide8"
     inkscape:locked="false" /><sodipodi:guide
     position="13.714,6.664"
     orientation="1,0"
     id="guide9"
     inkscape:locked="false" /></sodipodi:namedview>
<g
   id="g5">
	<linearGradient
   id="SVGID_1_"
   gradientUnits="userSpaceOnUse"
   x1="10.0005"
   y1="0"
   x2="10.0005"
   y2="17.9003">
		<stop
   offset="0"
   style="stop-color:#baaa00;stop-opacity:1;"
   id="stop1" />
		
		<stop
   offset="0.95792502"
   style="stop-color:#897d00;stop-opacity:1;"
   id="stop3" />
		
		
	</linearGradient>
	<circle
   fill="url(#SVGID_1_)"
   cx="10"
   cy="10"
   r="10"
   id="circle5" />
<path
   d="M 6.8737294,14.261518 V 5.8615175 h 3.1679996 q 1.218,0 1.806,0.522 0.594,0.516 0.594,1.506 0,0.738 -0.336,1.236 -0.33,0.492 -0.996,0.72 v -0.288 q 1.008,0.216 1.506,0.7920005 0.498,0.576 0.498,1.524 0,1.134 -0.732,1.764 -0.732,0.624 -2.004,0.624 z m 1.536,-1.368 h 1.7399996 q 0.63,0 1.002,-0.258 0.378,-0.258 0.378,-0.93 0,-0.684 -0.396,-0.93 -0.396,-0.246 -0.984,-0.246 H 8.4097294 Z m 0,-3.7320005 h 1.404 q 0.5579996,0 0.8339996,-0.228 0.282,-0.228 0.282,-0.732 0,-0.522 -0.282,-0.744 -0.276,-0.228 -0.8339996,-0.228 h -1.404 z"
   id="text9"
   style="font-weight:bold;font-family:Cabin;-inkscape-font-specification:'Cabin Bold';fill:#cccccc;stroke-width:0.5;paint-order:markers fill stroke"
   aria-label="B" /></g>

</svg>
