<?xml version="1.0" encoding="utf-8"?>
<!-- Generator: Adobe Illustrator 16.0.0, SVG Export Plug-In . SVG Version: 6.00 Build 0)  -->
<!DOCTYPE svg PUBLIC "-//W3C//DTD SVG 1.1//EN" "http://www.w3.org/Graphics/SVG/1.1/DTD/svg11.dtd">
<svg version="1.1" id="Capa_1" xmlns="http://www.w3.org/2000/svg" xmlns:xlink="http://www.w3.org/1999/xlink" x="0px" y="0px"
	 width="20px" height="20px" viewBox="0 0 20 20" enable-background="new 0 0 20 20" xml:space="preserve">
<g>
	<g>
		<linearGradient id="SVGID_1_" gradientUnits="userSpaceOnUse" x1="9.9995" y1="0" x2="9.9995" y2="17.9008">
			<stop  offset="0" style="stop-color:#5B5B5F"/>
			<stop  offset="0.0231" style="stop-color:#59595D"/>
			<stop  offset="0.4507" style="stop-color:#333335"/>
			<stop  offset="0.7912" style="stop-color:#1C1C1D"/>
			<stop  offset="1" style="stop-color:#141414"/>
		</linearGradient>
		<circle fill="url(#SVGID_1_)" cx="10" cy="10" r="10"/>
		<linearGradient id="SVGID_2_" gradientUnits="userSpaceOnUse" x1="0" y1="10" x2="19.9995" y2="10">
			<stop  offset="0" style="stop-color:#5B5B5F"/>
			<stop  offset="0.0231" style="stop-color:#59595D"/>
			<stop  offset="0.4507" style="stop-color:#333335"/>
			<stop  offset="0.7912" style="stop-color:#1C1C1D"/>
			<stop  offset="1" style="stop-color:#141414"/>
		</linearGradient>
		<path fill="url(#SVGID_2_)" d="M10.001,2.399c4.189,0,7.6,3.41,7.6,7.6c0,4.192-3.41,7.6-7.6,7.6c-4.192,0-7.602-3.408-7.602-7.6
			C2.399,5.81,5.81,2.399,10.001,2.399 M10.001,0C4.478,0,0,4.477,0,10c0,5.524,4.478,10,10.001,10C15.523,20,20,15.523,20,10
			C20,4.477,15.523,0,10.001,0L10.001,0z"/>
	</g>
	<path fill="#FFFFFF" d="M11.511,14.303v-2.215c0-0.416-0.096-0.711-0.285-0.889c-0.191-0.178-0.545-0.266-1.064-0.266H8.244v3.37
		h-1.75V5.696h4.37c0.396,0,0.758,0.063,1.082,0.188c0.324,0.126,0.602,0.299,0.836,0.519c0.232,0.221,0.412,0.484,0.537,0.791
		s0.189,0.638,0.189,0.991c0,0.467-0.111,0.879-0.332,1.239c-0.219,0.357-0.537,0.611-0.951,0.758
		c0.379,0.121,0.648,0.307,0.809,0.557c0.16,0.252,0.24,0.627,0.24,1.129v2.436H11.511z M8.244,7.187v2.295H10.5
		c0.484,0,0.824-0.109,1.023-0.324c0.199-0.217,0.299-0.488,0.299-0.817c0-0.338-0.098-0.613-0.291-0.83
		c-0.195-0.216-0.518-0.324-0.967-0.324H8.244z"/>
</g>
</svg>
