<?xml version="1.0" encoding="utf-8"?>
<!-- Generator: Adobe Illustrator 16.0.0, SVG Export Plug-In . SVG Version: 6.00 Build 0)  -->
<!DOCTYPE svg PUBLIC "-//W3C//DTD SVG 1.1//EN" "http://www.w3.org/Graphics/SVG/1.1/DTD/svg11.dtd">
<svg version="1.1" id="Capa_1" xmlns="http://www.w3.org/2000/svg" xmlns:xlink="http://www.w3.org/1999/xlink" x="0px" y="0px"
	 width="20px" height="20px" viewBox="0 0 20 20" enable-background="new 0 0 20 20" xml:space="preserve">
<g>
	<g>
		<linearGradient id="SVGID_1_" gradientUnits="userSpaceOnUse" x1="9.999" y1="0" x2="9.999" y2="17.9012">
			<stop  offset="0" style="stop-color:#5B5B5F"/>
			<stop  offset="0.0231" style="stop-color:#59595D"/>
			<stop  offset="0.4507" style="stop-color:#333335"/>
			<stop  offset="0.7912" style="stop-color:#1C1C1D"/>
			<stop  offset="1" style="stop-color:#141414"/>
		</linearGradient>
		<circle fill="url(#SVGID_1_)" cx="9.999" cy="10" r="10"/>
		<linearGradient id="SVGID_2_" gradientUnits="userSpaceOnUse" x1="-4.882813e-004" y1="10.0005" x2="19.999" y2="10.0005">
			<stop  offset="0" style="stop-color:#5B5B5F"/>
			<stop  offset="0.0231" style="stop-color:#59595D"/>
			<stop  offset="0.4507" style="stop-color:#333335"/>
			<stop  offset="0.7912" style="stop-color:#1C1C1D"/>
			<stop  offset="1" style="stop-color:#141414"/>
		</linearGradient>
		<path fill="url(#SVGID_2_)" d="M10.001,2.4c4.189,0,7.6,3.409,7.6,7.6c0,4.189-3.41,7.6-7.6,7.6C5.81,17.6,2.4,14.19,2.4,10
			C2.4,5.81,5.81,2.4,10.001,2.4 M10.001,0C4.477,0,0,4.477,0,10c0,5.521,4.478,10,10.001,10c5.521,0,9.998-4.479,9.998-10
			C19.999,4.477,15.522,0,10.001,0L10.001,0z"/>
	</g>
	<path fill="#FFFFFF" d="M6.966,14.303V5.696h1.803v7.039h4.263v1.568H6.966z"/>
</g>
</svg>
