<?xml version="1.0" encoding="UTF-8" standalone="no"?>
<!-- Generator: Adobe Illustrator 16.0.0, SVG Export Plug-In . SVG Version: 6.00 Build 0)  -->

<svg
   version="1.1"
   id="Capa_1"
   x="0px"
   y="0px"
   width="20px"
   height="20px"
   viewBox="0 0 20 20"
   enable-background="new 0 0 20 20"
   xml:space="preserve"
   sodipodi:docname="Xbox_D-Pad_UpDown.svg"
   inkscape:version="1.4.4 (dcaf3e7d9e, 2026-05-05)"
   xmlns:inkscape="http://www.inkscape.org/namespaces/inkscape"
   xmlns:sodipodi="http://sodipodi.sourceforge.net/DTD/sodipodi-0.dtd"
   xmlns="http://www.w3.org/2000/svg"
   xmlns:svg="http://www.w3.org/2000/svg"><defs
   id="defs4" /><sodipodi:namedview
   id="namedview4"
   pagecolor="#ffffff"
   bordercolor="#000000"
   borderopacity="0.25"
   inkscape:showpageshadow="2"
   inkscape:pageopacity="0.0"
   inkscape:pagecheckerboard="0"
   inkscape:deskcolor="#d1d1d1"
   showguides="true"
   inkscape:zoom="19.25"
   inkscape:cx="5.8701299"
   inkscape:cy="12.675325"
   inkscape:window-width="1920"
   inkscape:window-height="978"
   inkscape:window-x="1920"
   inkscape:window-y="28"
   inkscape:window-maximized="1"
   inkscape:current-layer="g4"><sodipodi:guide
     position="7.357,12.785"
     orientation="0,-1"
     id="guide4"
     inkscape:locked="false" /><sodipodi:guide
     position="7.357,7.215"
     orientation="0,-1"
     id="guide5"
     inkscape:locked="false" /></sodipodi:namedview>
<g
   id="g4">
	<g
   id="g3">
		<g
   id="g1">
			<circle
   fill="#727272"
   cx="10"
   cy="10"
   r="10"
   id="circle1" />
		</g>
		<g
   id="g2">
			<linearGradient
   id="SVGID_1_"
   gradientUnits="userSpaceOnUse"
   x1="10"
   y1="0"
   x2="10"
   y2="17.9003">
				<stop
   offset="0"
   style="stop-color:#444242"
   id="stop1" />
				<stop
   offset="1"
   style="stop-color:#252526"
   id="stop2" />
			</linearGradient>
			<path
   fill="url(#SVGID_1_)"
   d="M19.746,12.235C19.912,11.516,20,10.769,20,10s-0.088-1.517-0.254-2.235     c-3.766-0.827-6.734-3.775-7.592-7.529C11.461,0.083,10.74,0,10.002,0C9.18,0,8.383,0.102,7.619,0.288     c-0.877,3.62-3.721,6.47-7.336,7.354C0.1,8.398,0,9.188,0,10c0,0.804,0.098,1.584,0.277,2.334     c3.674,0.855,6.57,3.736,7.447,7.402C8.457,19.907,9.217,20,10.002,20c0.738,0,1.459-0.083,2.152-0.235     C13.012,16.011,15.98,13.063,19.746,12.235z"
   id="path2" />
		</g>
	</g>
	<polygon
   fill="#ffffff"
   points="7.357,12.785 1.201,10 7.357,7.215 6.129,10 "
   id="polygon3"
   transform="rotate(90,10,9.9995)" />
</g><polygon
   fill="#ffffff"
   points="12.646,7.215 18.803,10.001 12.646,12.786 13.875,10.001 "
   id="polygon2"
   transform="rotate(90,10.0025,9.9980003)" />
</svg>
