<?xml version="1.0" encoding="UTF-8" standalone="no"?>
<!-- Generator: Adobe Illustrator 15.0.2, SVG Export Plug-In  -->

<svg
   width="20"
   height="20"
   enable-background="new 6.9335938 -0.1396484 175 36"
   version="1.1"
   viewBox="6.9336 -0.13965 20 19.999999"
   xml:space="preserve"
   id="svg25"
   sodipodi:docname="Xbox_Guide_button.svg"
   inkscape:version="1.4.4 (dcaf3e7d9e, 2026-05-05)"
   xmlns:inkscape="http://www.inkscape.org/namespaces/inkscape"
   xmlns:sodipodi="http://sodipodi.sourceforge.net/DTD/sodipodi-0.dtd"
   xmlns:xlink="http://www.w3.org/1999/xlink"
   xmlns="http://www.w3.org/2000/svg"
   xmlns:svg="http://www.w3.org/2000/svg"><sodipodi:namedview
   id="namedview25"
   pagecolor="#ffffff"
   bordercolor="#000000"
   borderopacity="0.25"
   inkscape:showpageshadow="2"
   inkscape:pageopacity="0.0"
   inkscape:pagecheckerboard="0"
   inkscape:deskcolor="#d1d1d1"
   inkscape:zoom="9.9277792"
   inkscape:cx="0.35254612"
   inkscape:cy="5.3385555"
   inkscape:window-width="1920"
   inkscape:window-height="978"
   inkscape:window-x="0"
   inkscape:window-y="0"
   inkscape:window-maximized="1"
   inkscape:current-layer="g8" />
<defs
   id="defs4"><linearGradient
   id="linearGradient28"><stop
     stop-color="#fff"
     offset="0"
     id="stop27"
     style="stop-color:#dfdfdf;stop-opacity:1;" /><stop
     stop-color="#fff"
     stop-opacity="0"
     offset="1"
     id="stop28" /></linearGradient><linearGradient
   id="linearGradient4002"><stop
     stop-color="#97ca43"
     offset="0"
     id="stop1" /><stop
     stop-color="#97ca43"
     stop-opacity="0"
     offset="1"
     id="stop2" /></linearGradient><linearGradient
   id="linearGradient3037"><stop
     stop-color="#fff"
     offset="0"
     id="stop3" /><stop
     stop-color="#fff"
     stop-opacity="0"
     offset="1"
     id="stop4" /></linearGradient>
<radialGradient
   id="radialGradient4187"
   cx="24.528999"
   cy="11.821"
   r="14.35"
   gradientTransform="matrix(0,1.4985,-1.2792,0,38.156,-20.965)"
   gradientUnits="userSpaceOnUse"
   xlink:href="#linearGradient3037" /><linearGradient
   id="linearGradient4193"
   x1="17.160999"
   x2="13.206"
   y1="21.540001"
   y2="16.9"
   gradientUnits="userSpaceOnUse"
   xlink:href="#linearGradient4002"
   gradientTransform="translate(9.5513,-36)" /><linearGradient
   id="linearGradient4195"
   x1="19.663"
   x2="23.287001"
   y1="13.09"
   y2="5.0464001"
   gradientUnits="userSpaceOnUse"
   xlink:href="#linearGradient4002"
   gradientTransform="translate(8.2169,-1.073)" /><linearGradient
   id="linearGradient4199"
   x1="17.551001"
   x2="20.646999"
   y1="12.031"
   y2="6.9877"
   gradientUnits="userSpaceOnUse"
   xlink:href="#linearGradient4002"
   gradientTransform="translate(8.2169,-1.073)" /><radialGradient
   inkscape:collect="always"
   xlink:href="#linearGradient3037"
   id="radialGradient25"
   gradientUnits="userSpaceOnUse"
   gradientTransform="matrix(0,0.11208167,-0.09839927,0,16.924075,-36.424426)"
   cx="24.528999"
   cy="11.821"
   r="14.35" /><radialGradient
   inkscape:collect="always"
   xlink:href="#linearGradient3037"
   id="radialGradient26"
   gradientUnits="userSpaceOnUse"
   gradientTransform="matrix(0,0.11208167,-0.09839927,0,16.924075,-36.424426)"
   cx="24.528999"
   cy="11.821"
   r="14.35" /><radialGradient
   inkscape:collect="always"
   xlink:href="#linearGradient28"
   id="radialGradient27"
   gradientUnits="userSpaceOnUse"
   gradientTransform="matrix(0,0.11208167,-0.09839927,0,16.924075,-36.424426)"
   cx="24.528999"
   cy="11.821"
   r="14.35" /><linearGradient
   inkscape:collect="always"
   xlink:href="#linearGradient4002"
   id="linearGradient27"
   gradientUnits="userSpaceOnUse"
   x1="17.160999"
   y1="21.540001"
   x2="13.206"
   y2="16.9"
   gradientTransform="translate(9.5513,-36)" /></defs>








<ellipse
   cx="16.933596"
   cy="9.8603497"
   rx="9.999999"
   ry="10"
   fill="#666666"
   id="ellipse5"
   style="display:inline;stroke-width:0.0758494" /><g
   fill="url(#radialGradient4187)"
   id="g8"
   style="fill:url(#radialGradient4187);stroke-width:0.11038"
   transform="matrix(9.0593,0,0,9.0593,-126.05706,313.8495)"><circle
     cx="15.783853"
     cy="-33.555477"
     id="ellipse6"
     style="display:inline;fill:url(#radialGradient25);stroke-width:0.00837251"
     r="1.1038381" /><circle
     cx="15.783853"
     cy="-33.555477"
     id="ellipse7"
     style="display:inline;fill:url(#radialGradient26);stroke-width:0.00837251"
     r="1.1038381" /><circle
     cx="15.783853"
     cy="-33.555477"
     id="ellipse8"
     style="display:inline;fill:url(#radialGradient27);stroke-width:0.00837251"
     r="1.1038381" /></g><g
   transform="matrix(0.59277313,0,0,0.59959168,-1.7683216,20.672832)"
   stroke-width="0.11038"
   id="g21"><g
     transform="matrix(1.0075,0,0,1.0008,-0.2371,0.027153)"
     id="g14"><path
       d="m 27.3013,-25.344 c -1.8477,2.256 -9.5927,11.425 -8.9062,17.625 0.47832,0.61002 1.0047,1.1803 1.5625,1.7188 -0.08129,-4.7457 5.4515,-9.8246 9.7694,-13.658 z"
       fill="#00a54d"
       id="path8"
       style="stroke-width:0.11038" /><path
       d="m 27.3013,-25.344 c -1.8477,2.256 -9.5927,11.425 -8.9062,17.625 0.47832,0.61002 1.0047,1.1803 1.5625,1.7188 -0.08129,-4.7457 5.4515,-9.8246 9.7694,-13.658 z"
       fill="url(#linearGradient4193)"
       id="path9"
       style="fill:url(#linearGradient27);stroke-width:0.11038" /><g
       transform="translate(1.1962,-34.896)"
       id="g12"
       style="stroke-width:0.11038"><path
         d="m 21.5609,2.677 c -0.96566,0.58492 -1.8629,1.2723 -2.6875,2.0312 2.6563,0.50798 5.3208,2.8624 6.7812,4.8125 1.2724,2.0014 1.9634,3.8367 2.8615,5.7312 0.60813,-0.51835 1.2265,-1.0464 1.8963,-1.5867 L 30.4085,5.4386 c -1.979,-1.2378 -5.2498,-2.867 -8.8164,-2.7617 -0.0076,0.00461 -0.02361,-0.00463 -0.03125,0 z"
         fill="#02a74d"
         id="path10"
         style="stroke-width:0.11038" /><path
         d="m 21.5609,2.677 c -0.96566,0.58492 -1.8629,1.2723 -2.6875,2.0312 2.6563,0.50798 5.3208,2.8624 6.7812,4.8125 1.2724,2.0014 1.9634,3.8367 2.8615,5.7312 0.60813,-0.51835 1.2265,-1.0464 1.8963,-1.5867 L 30.4085,5.4386 c -1.979,-1.2378 -5.2498,-2.867 -8.8164,-2.7617 -0.0076,0.00461 -0.02361,-0.00463 -0.03125,0 z"
         fill="url(#linearGradient4195)"
         id="path11"
         style="fill:url(#linearGradient4195);stroke-width:0.11038" /></g></g><g
     transform="matrix(-1.0042,0,0,1.0017,63.252,0.054306)"
     id="g20"><path
       d="m 27.3013,-25.344 c -1.8477,2.256 -9.5927,11.425 -8.9062,17.625 0.47832,0.61002 1.0047,1.1803 1.5625,1.7188 -0.08129,-4.7457 5.4515,-9.8246 9.7694,-13.658 z"
       fill="#00a54d"
       id="path14"
       style="stroke-width:0.11038" /><path
       d="m 27.3013,-25.344 c -1.8477,2.256 -9.5927,11.425 -8.9062,17.625 0.47832,0.61002 1.0047,1.1803 1.5625,1.7188 -0.08129,-4.7457 5.4515,-9.8246 9.7694,-13.658 z"
       fill="url(#linearGradient4193)"
       id="path15"
       style="fill:url(#linearGradient4193);stroke-width:0.11038" /><g
       transform="translate(1.1962,-34.896)"
       id="g18"
       style="stroke-width:0.11038"><path
         d="m 21.5609,2.677 c -0.96566,0.58492 -1.8629,1.2723 -2.6875,2.0312 2.6563,0.50798 5.3208,2.8624 6.7812,4.8125 1.2724,2.0014 1.9634,3.8367 2.8615,5.7312 0.60813,-0.51835 1.2265,-1.0464 1.8963,-1.5867 L 30.4085,5.4386 c -1.979,-1.2378 -5.2498,-2.867 -8.8164,-2.7617 -0.0076,0.00461 -0.02361,-0.00463 -0.03125,0 z"
         fill="#02a74d"
         id="path16"
         style="stroke-width:0.11038" /><path
         d="m 21.5609,2.677 c -0.96566,0.58492 -1.8629,1.2723 -2.6875,2.0312 2.6563,0.50798 5.3208,2.8624 6.7812,4.8125 1.2724,2.0014 1.9634,3.8367 2.8615,5.7312 0.60813,-0.51835 1.2265,-1.0464 1.8963,-1.5867 L 30.4085,5.4386 c -1.979,-1.2378 -5.2498,-2.867 -8.8164,-2.7617 -0.0076,0.00461 -0.02361,-0.00463 -0.03125,0 z"
         fill="url(#linearGradient4199)"
         id="path17"
         style="fill:url(#linearGradient4199);stroke-width:0.11038" /></g></g></g></svg>
