<?xml version="1.0" encoding="UTF-8" standalone="no"?>
<!-- Generator: Adobe Illustrator 16.0.0, SVG Export Plug-In . SVG Version: 6.00 Build 0)  -->

<svg
   version="1.1"
   id="Capa_1"
   x="0px"
   y="0px"
   width="20px"
   height="19.841px"
   viewBox="0 0 20 19.841"
   enable-background="new 0 0 20 19.841"
   xml:space="preserve"
   sodipodi:docname="PlayStation_UpDownLeftRight_button.svg"
   inkscape:version="1.4.4 (dcaf3e7d9e, 2026-05-05)"
   xmlns:inkscape="http://www.inkscape.org/namespaces/inkscape"
   xmlns:sodipodi="http://sodipodi.sourceforge.net/DTD/sodipodi-0.dtd"
   xmlns:xlink="http://www.w3.org/1999/xlink"
   xmlns="http://www.w3.org/2000/svg"
   xmlns:svg="http://www.w3.org/2000/svg"><defs
   id="defs29"><linearGradient
     inkscape:collect="always"
     xlink:href="#SVGID_1_"
     id="linearGradient34"
     gradientUnits="userSpaceOnUse"
     gradientTransform="rotate(-90,28.77975,-33.62355)"
     x1="-18.0967"
     y1="-58.1431"
     x2="-11.4326"
     y2="-58.1431" /><linearGradient
     inkscape:collect="always"
     xlink:href="#SVGID_2_"
     id="linearGradient35"
     gradientUnits="userSpaceOnUse"
     x1="4.2607"
     y1="13.2529"
     x2="4.2607"
     y2="6.5889" /><linearGradient
     id="SVGID_1_-6"
     gradientUnits="userSpaceOnUse"
     x1="10.002"
     y1="8.5228996"
     x2="10.002"
     y2="0">
			<stop
   offset="0.3"
   style="stop-color:#0044A1"
   id="stop1-6" />
			<stop
   offset="1"
   style="stop-color:#5FB1DA"
   id="stop2-9" />
		</linearGradient><linearGradient
     id="SVGID_2_-3"
     gradientUnits="userSpaceOnUse"
     x1="10.002"
     y1="8.5228996"
     x2="10.002"
     y2="0">
			<stop
   offset="0.3"
   style="stop-color:#1B388A"
   id="stop3-1" />
			<stop
   offset="1"
   style="stop-color:#5FB1DA"
   id="stop4-3" />
		</linearGradient><linearGradient
     id="SVGID_1_-4"
     gradientUnits="userSpaceOnUse"
     x1="-132.3262"
     y1="-295.40631"
     x2="-132.3262"
     y2="-286.88571"
     gradientTransform="rotate(180,-61.1621,-137.78225)">
			<stop
   offset="0.3"
   style="stop-color:#0044A1"
   id="stop1-2" />
			<stop
   offset="1"
   style="stop-color:#5FB1DA"
   id="stop2-1" />
		</linearGradient><linearGradient
     id="SVGID_2_-4"
     gradientUnits="userSpaceOnUse"
     x1="10.001"
     y1="19.841801"
     x2="10.001"
     y2="11.3213">
			<stop
   offset="0.3"
   style="stop-color:#1B388A"
   id="stop3-7" />
			<stop
   offset="1"
   style="stop-color:#5FB1DA"
   id="stop4-6" />
		</linearGradient></defs><sodipodi:namedview
   id="namedview29"
   pagecolor="#ffffff"
   bordercolor="#000000"
   borderopacity="0.25"
   inkscape:showpageshadow="2"
   inkscape:pageopacity="0.0"
   inkscape:pagecheckerboard="0"
   inkscape:deskcolor="#d1d1d1"
   showguides="true"
   inkscape:zoom="32"
   inkscape:cx="12.8125"
   inkscape:cy="7.3125"
   inkscape:window-width="1920"
   inkscape:window-height="978"
   inkscape:window-x="1920"
   inkscape:window-y="28"
   inkscape:window-maximized="1"
   inkscape:current-layer="g29"><sodipodi:guide
     position="11.479,9.9199998"
     orientation="1,0"
     id="guide35"
     inkscape:locked="false" /><sodipodi:guide
     position="18.217645,13.252"
     orientation="0,-1"
     id="guide36"
     inkscape:locked="false" /><sodipodi:guide
     position="16.668,6.5879997"
     orientation="0,-1"
     id="guide37"
     inkscape:locked="false" /><sodipodi:guide
     position="10,11.32"
     orientation="0,-1"
     id="guide1"
     inkscape:locked="false" /><sodipodi:guide
     position="10,8.5199998"
     orientation="0,-1"
     id="guide2"
     inkscape:locked="false" /><sodipodi:guide
     position="6.667,15.512055"
     orientation="1,0"
     id="guide3"
     inkscape:locked="false" /><sodipodi:guide
     position="13.333,15.434752"
     orientation="1,0"
     id="guide4"
     inkscape:locked="false" /></sodipodi:namedview>
<g
   id="g29">
	<g
   id="g4">
		
			<linearGradient
   id="SVGID_1_"
   gradientUnits="userSpaceOnUse"
   x1="-18.0967"
   y1="-58.1431"
   x2="-11.4326"
   y2="-58.1431"
   gradientTransform="matrix(0 -1 1 0 62.4033 -4.8438)">
			<stop
   offset="0.3"
   style="stop-color:#0044A1"
   id="stop1" />
			<stop
   offset="1"
   style="stop-color:#5FB1DA"
   id="stop2" />
		</linearGradient>
		<path
   fill="url(#SVGID_1_)"
   d="M5.55,6.589l2.971,3.332L5.55,13.253H1.114c-0.615,0-1.114-0.5-1.114-1.115V7.702    c0-0.615,0.499-1.113,1.114-1.113H5.55z"
   id="path2" />
		<linearGradient
   id="SVGID_2_"
   gradientUnits="userSpaceOnUse"
   x1="4.2607"
   y1="13.2529"
   x2="4.2607"
   y2="6.5889">
			<stop
   offset="0.3"
   style="stop-color:#1B388A"
   id="stop3" />
			<stop
   offset="1"
   style="stop-color:#5FB1DA"
   id="stop4" />
		</linearGradient>
		<path
   fill="url(#SVGID_2_)"
   d="M5.259,7.238L7.65,9.921l-2.392,2.682H1.114c-0.256,0-0.464-0.208-0.464-0.465V7.702    c0-0.256,0.208-0.464,0.464-0.464H5.259 M5.55,6.589H1.114C0.499,6.589,0,7.087,0,7.702v4.436c0,0.615,0.499,1.115,1.114,1.115    H5.55l2.971-3.332L5.55,6.589L5.55,6.589z"
   id="path4" />
	</g>
	
	
	
<g
   id="g32"
   transform="matrix(-1,0,0,1,20,-3.0863706e-8)">
		
			<linearGradient
   id="linearGradient30"
   gradientUnits="userSpaceOnUse"
   x1="-18.096701"
   y1="-58.143101"
   x2="-11.4326"
   y2="-58.143101"
   gradientTransform="rotate(-90,28.77975,-33.62355)">
			<stop
   offset="0.3"
   style="stop-color:#0044A1"
   id="stop29" />
			<stop
   offset="1"
   style="stop-color:#5FB1DA"
   id="stop30" />
		</linearGradient>
		<path
   fill="url(#SVGID_1_)"
   d="M 5.55,6.589 8.521,9.921 5.55,13.253 H 1.114 C 0.499,13.253 0,12.753 0,12.138 V 7.702 C 0,7.087 0.499,6.589 1.114,6.589 Z"
   id="path30"
   style="fill:url(#linearGradient34)" />
		<linearGradient
   id="linearGradient32"
   gradientUnits="userSpaceOnUse"
   x1="4.2607002"
   y1="13.2529"
   x2="4.2607002"
   y2="6.5889001">
			<stop
   offset="0.3"
   style="stop-color:#1B388A"
   id="stop31" />
			<stop
   offset="1"
   style="stop-color:#5FB1DA"
   id="stop32" />
		</linearGradient>
		<path
   fill="url(#SVGID_2_)"
   d="M 5.259,7.238 7.65,9.921 5.258,12.603 H 1.114 C 0.858,12.603 0.65,12.395 0.65,12.138 V 7.702 C 0.65,7.446 0.858,7.238 1.114,7.238 H 5.259 M 5.55,6.589 H 1.114 C 0.499,6.589 0,7.087 0,7.702 v 4.436 c 0,0.615 0.499,1.115 1.114,1.115 H 5.55 L 8.521,9.921 Z"
   id="path32"
   style="fill:url(#linearGradient35)" />
	</g><g
   id="g4-0"
   transform="translate(-0.00300023)">
		<linearGradient
   id="linearGradient6"
   gradientUnits="userSpaceOnUse"
   x1="10.002"
   y1="8.5228996"
   x2="10.002"
   y2="0">
			<stop
   offset="0.3"
   style="stop-color:#0044A1"
   id="stop5" />
			<stop
   offset="1"
   style="stop-color:#5FB1DA"
   id="stop6" />
		</linearGradient>
		<path
   fill="url(#SVGID_1_)"
   d="M 13.335,5.551 10.002,8.523 6.67,5.551 V 1.114 C 6.67,0.499 7.168,0 7.783,0 h 4.438 c 0.615,0 1.114,0.499 1.114,1.114 z"
   id="path2-9"
   style="fill:url(#SVGID_1_-6)" />
		<linearGradient
   id="linearGradient8"
   gradientUnits="userSpaceOnUse"
   x1="10.002"
   y1="8.5228996"
   x2="10.002"
   y2="0">
			<stop
   offset="0.3"
   style="stop-color:#1B388A"
   id="stop7" />
			<stop
   offset="1"
   style="stop-color:#5FB1DA"
   id="stop8" />
		</linearGradient>
		<path
   fill="url(#SVGID_2_)"
   d="m 12.221,0.65 c 0.256,0 0.465,0.208 0.465,0.464 V 5.26 L 10.002,7.652 7.319,5.26 V 1.114 C 7.319,0.858 7.527,0.65 7.783,0.65 h 4.438 m 0,-0.65 H 7.783 C 7.168,0 6.67,0.499 6.67,1.114 v 4.437 l 3.332,2.972 3.333,-2.972 V 1.114 C 13.335,0.499 12.836,0 12.221,0 Z"
   id="path4-1"
   style="fill:url(#SVGID_2_-3)" />
	</g><g
   id="g4-3"
   transform="translate(-0.0010001)">
		
			<linearGradient
   id="linearGradient10"
   gradientUnits="userSpaceOnUse"
   x1="-132.3262"
   y1="-295.40631"
   x2="-132.3262"
   y2="-286.88571"
   gradientTransform="rotate(180,-61.1621,-137.78225)">
			<stop
   offset="0.3"
   style="stop-color:#0044A1"
   id="stop9" />
			<stop
   offset="1"
   style="stop-color:#5FB1DA"
   id="stop10" />
		</linearGradient>
		<path
   fill="url(#SVGID_1_)"
   d="m 6.669,14.292 3.332,-2.971 3.332,2.971 v 4.436 c 0,0.615 -0.5,1.114 -1.115,1.114 H 7.782 c -0.615,0 -1.113,-0.499 -1.113,-1.114 z"
   id="path2-8"
   style="fill:url(#SVGID_1_-4)" />
		<linearGradient
   id="linearGradient12"
   gradientUnits="userSpaceOnUse"
   x1="10.001"
   y1="19.841801"
   x2="10.001"
   y2="11.3213">
			<stop
   offset="0.3"
   style="stop-color:#1B388A"
   id="stop11" />
			<stop
   offset="1"
   style="stop-color:#5FB1DA"
   id="stop12" />
		</linearGradient>
		<path
   fill="url(#SVGID_2_)"
   d="m 10.001,12.191 2.682,2.392 v 4.145 c 0,0.256 -0.209,0.465 -0.465,0.465 H 7.782 c -0.256,0 -0.464,-0.209 -0.464,-0.465 v -4.145 l 2.683,-2.392 m 0,-0.87 -3.332,2.971 v 4.436 c 0,0.615 0.498,1.114 1.113,1.114 h 4.436 c 0.615,0 1.115,-0.499 1.115,-1.114 v -4.436 z"
   id="path4-0"
   style="fill:url(#SVGID_2_-4)" />
	</g></g>
</svg>
