<?xml version="1.0" encoding="utf-8"?>
<!-- Generator: Adobe Illustrator 16.0.0, SVG Export Plug-In . SVG Version: 6.00 Build 0)  -->
<!DOCTYPE svg PUBLIC "-//W3C//DTD SVG 1.1//EN" "http://www.w3.org/Graphics/SVG/1.1/DTD/svg11.dtd">
<svg version="1.1" id="Capa_1" xmlns="http://www.w3.org/2000/svg" xmlns:xlink="http://www.w3.org/1999/xlink" x="0px" y="0px"
	 width="20px" height="20px" viewBox="0 0 20 20" enable-background="new 0 0 20 20" xml:space="preserve">
<g>
	<g>
		
			<linearGradient id="SVGID_1_" gradientUnits="userSpaceOnUse" x1="77.6592" y1="494.9209" x2="97.6587" y2="494.9209" gradientTransform="matrix(0 1 -1 0 504.9214 -76.9312)">
			<stop  offset="0" style="stop-color:#5B5B5F"/>
			<stop  offset="0.1036" style="stop-color:#535356"/>
			<stop  offset="0.7019" style="stop-color:#252526"/>
			<stop  offset="1" style="stop-color:#141414"/>
		</linearGradient>
		<circle fill="url(#SVGID_1_)" cx="10" cy="10" r="10"/>
		<linearGradient id="SVGID_2_" gradientUnits="userSpaceOnUse" x1="10" y1="0" x2="10" y2="19.9995">
			<stop  offset="0" style="stop-color:#5B5B5F"/>
			<stop  offset="0.2775" style="stop-color:#464649"/>
			<stop  offset="0.8541" style="stop-color:#0F0F10"/>
			<stop  offset="1" style="stop-color:#000000"/>
		</linearGradient>
		<path fill="url(#SVGID_2_)" d="M10,1.658c4.6,0,8.343,3.742,8.343,8.342c0,4.6-3.743,8.342-8.343,8.342
			C5.4,18.342,1.658,14.6,1.658,10C1.658,5.4,5.4,1.658,10,1.658 M10,0C4.477,0,0,4.477,0,10c0,5.523,4.477,10,10,10
			c5.523,0,10-4.477,10-10C20,4.477,15.523,0,10,0L10,0z"/>
	</g>
	<g>
		<g>
			<path fill="#FFFFFF" d="M4.561,13.706V6.282h1.554v6.071h3.678v1.353H4.561z"/>
			<path fill="#FFFFFF" d="M9.876,13.789H4.478V6.2h1.72v6.071h3.678V13.789z M4.644,13.623H9.71v-1.187H6.032v-6.07H4.644V13.623z"
				/>
		</g>
		<g>
			<path fill="#FFFFFF" d="M12.297,9.357c0.313,0,0.568-0.028,0.766-0.083c0.197-0.057,0.35-0.13,0.458-0.224
				c0.108-0.093,0.183-0.201,0.224-0.324s0.062-0.251,0.062-0.386c0-0.373-0.077-0.655-0.229-0.85
				c-0.153-0.194-0.397-0.291-0.732-0.291c-0.284,0-0.518,0.106-0.705,0.319c-0.187,0.212-0.279,0.512-0.279,0.9h-1.353
				c0-0.358,0.058-0.682,0.173-0.973c0.116-0.291,0.28-0.541,0.492-0.749c0.213-0.209,0.466-0.371,0.761-0.487
				c0.294-0.115,0.617-0.173,0.967-0.173c0.321,0,0.621,0.049,0.9,0.146c0.279,0.097,0.523,0.235,0.732,0.414
				c0.209,0.178,0.373,0.393,0.492,0.643c0.12,0.25,0.179,0.523,0.179,0.822c0,0.335-0.073,0.654-0.218,0.956
				c-0.145,0.301-0.363,0.539-0.654,0.709c0.357,0.149,0.632,0.375,0.822,0.677c0.189,0.302,0.285,0.687,0.285,1.157
				c0,0.373-0.063,0.708-0.19,1.006c-0.127,0.298-0.306,0.55-0.537,0.754c-0.231,0.205-0.507,0.364-0.828,0.475
				c-0.32,0.112-0.675,0.168-1.062,0.168c-0.775,0-1.375-0.216-1.8-0.648c-0.424-0.432-0.637-1.028-0.637-1.789h1.397
				c0,0.432,0.093,0.747,0.279,0.945c0.187,0.197,0.462,0.296,0.828,0.296c0.305,0,0.559-0.106,0.76-0.318s0.302-0.516,0.302-0.911
				c0-0.432-0.125-0.734-0.375-0.906c-0.25-0.171-0.677-0.257-1.28-0.257V9.357z"/>
			<path fill="#FFFFFF" d="M12.823,14.046c-0.794,0-1.42-0.227-1.859-0.673c-0.438-0.446-0.661-1.067-0.661-1.847v-0.083h1.563
				v0.083c0,0.408,0.086,0.707,0.256,0.888c0.169,0.18,0.427,0.271,0.768,0.271c0.284,0,0.513-0.096,0.7-0.293
				c0.186-0.195,0.279-0.483,0.279-0.854c0-0.401-0.114-0.683-0.339-0.837c-0.234-0.161-0.649-0.243-1.233-0.243h-0.083V9.274h0.083
				c0.304,0,0.554-0.027,0.743-0.081c0.185-0.052,0.329-0.122,0.427-0.207c0.098-0.084,0.163-0.178,0.199-0.288
				c0.038-0.113,0.057-0.234,0.057-0.359c0-0.352-0.071-0.62-0.211-0.798c-0.137-0.174-0.355-0.259-0.667-0.259
				c-0.261,0-0.471,0.095-0.642,0.291c-0.172,0.196-0.259,0.48-0.259,0.846V8.5h-1.519V8.418c0-0.367,0.06-0.705,0.179-1.003
				c0.119-0.3,0.291-0.562,0.51-0.777s0.485-0.386,0.788-0.505c0.303-0.119,0.638-0.179,0.998-0.179c0.328,0,0.64,0.05,0.927,0.15
				c0.288,0.1,0.543,0.245,0.759,0.429c0.217,0.186,0.389,0.411,0.513,0.669c0.124,0.26,0.187,0.549,0.187,0.858
				c0,0.346-0.076,0.68-0.226,0.992c-0.13,0.27-0.317,0.491-0.558,0.662c0.306,0.154,0.548,0.371,0.721,0.645
				c0.197,0.314,0.298,0.718,0.298,1.202c0,0.381-0.066,0.731-0.197,1.039c-0.131,0.308-0.319,0.572-0.558,0.784
				c-0.238,0.211-0.525,0.376-0.855,0.491C13.584,13.988,13.218,14.046,12.823,14.046z M10.469,11.608
				c0.015,0.695,0.221,1.25,0.613,1.648c0.407,0.414,0.993,0.624,1.741,0.624c0.377,0,0.725-0.056,1.035-0.163
				c0.309-0.108,0.578-0.263,0.799-0.459c0.221-0.196,0.394-0.44,0.515-0.725c0.122-0.287,0.184-0.614,0.184-0.974
				c0-0.452-0.092-0.827-0.272-1.113c-0.179-0.285-0.443-0.502-0.784-0.644l-0.153-0.064l0.143-0.084
				c0.275-0.162,0.484-0.389,0.622-0.674c0.139-0.289,0.209-0.599,0.209-0.92c0-0.284-0.057-0.549-0.171-0.786
				c-0.114-0.238-0.272-0.445-0.471-0.615c-0.2-0.171-0.437-0.306-0.705-0.398c-0.27-0.093-0.563-0.141-0.873-0.141
				c-0.338,0-0.653,0.057-0.937,0.168c-0.282,0.111-0.529,0.268-0.732,0.468c-0.203,0.2-0.362,0.442-0.473,0.72
				c-0.102,0.257-0.158,0.546-0.166,0.859h1.187c0.013-0.368,0.113-0.661,0.299-0.872c0.202-0.23,0.459-0.347,0.767-0.347
				c0.36,0,0.628,0.108,0.797,0.322c0.164,0.208,0.247,0.512,0.247,0.901c0,0.143-0.022,0.281-0.065,0.412
				c-0.046,0.137-0.129,0.258-0.249,0.361c-0.117,0.101-0.281,0.181-0.49,0.241c-0.187,0.052-0.424,0.082-0.706,0.086v0.853
				c0.582,0.007,0.989,0.096,1.244,0.271c0.272,0.188,0.411,0.515,0.411,0.974c0,0.415-0.109,0.741-0.325,0.968
				c-0.217,0.229-0.493,0.345-0.82,0.345c-0.388,0-0.686-0.108-0.888-0.322c-0.188-0.199-0.289-0.508-0.301-0.919H10.469z"/>
		</g>
	</g>
</g>
</svg>
