<?xml version="1.0" encoding="UTF-8" standalone="no"?>
<svg
   width="600"
   height="82.29084701618191"
   xml:space="preserve"
   version="1.1"
   id="svg8"
   viewBox="0 0 585.85693 80.351105"
   sodipodi:docname="gbc.svg"
   inkscape:version="1.4.4 (dcaf3e7d9e, 2026-05-05)"
   xmlns:inkscape="http://www.inkscape.org/namespaces/inkscape"
   xmlns:sodipodi="http://sodipodi.sourceforge.net/DTD/sodipodi-0.dtd"
   xmlns="http://www.w3.org/2000/svg"
   xmlns:svg="http://www.w3.org/2000/svg"><sodipodi:namedview
   id="namedview1"
   pagecolor="#ffffff"
   bordercolor="#000000"
   borderopacity="0.25"
   inkscape:showpageshadow="2"
   inkscape:pageopacity="0.0"
   inkscape:pagecheckerboard="0"
   inkscape:deskcolor="#d1d1d1"
   inkscape:zoom="0.74791667"
   inkscape:cx="175.1532"
   inkscape:cy="-149.7493"
   inkscape:window-width="1920"
   inkscape:window-height="978"
   inkscape:window-x="0"
   inkscape:window-y="0"
   inkscape:window-maximized="1"
   inkscape:current-layer="svg8" />
    <defs
   id="defs8" />
    <path
   id="path9"
   style="baseline-shift:baseline;display:inline;overflow:visible;vector-effect:none;fill:#ffffff;stroke-linecap:round;stroke-linejoin:round;paint-order:markers stroke fill;enable-background:accumulate;stop-color:#000000"
   d="m 388.14356,0.00190709 c -8.38524,-0.1101633 -14.32755,3.30818591 -16.50774,4.76199461 -0.0452,0.025972 -2.70574,1.5563511 -5.79945,4.4282545 -3.09084,2.8692438 -7.10461,7.3652738 -11.35097,14.0208988 -5.19581,7.502217 -6.47001,13.393172 -6.85026,15.476006 -0.12994,0.353568 -0.26462,0.687433 -0.36044,1.085132 -0.14496,0.601702 -0.26261,1.281427 -0.35662,2.12068 -0.1787,1.5953 -0.24636,3.906148 -0.13731,7.115339 -0.12714,5.559255 1.59771,10.047121 2.28278,11.600806 0.88945,2.304636 5.19323,12.006497 16.02715,16.288425 7.88846,3.244536 16.36281,2.790067 16.36281,2.790067 0.0235,1.11e-4 0.047,1.11e-4 0.0706,0 0,0 7.47487,-0.09933 13.62994,-0.423373 2.7737,0.107584 5.21876,-0.561132 6.94752,-1.415058 0.83738,-0.413631 1.56911,-0.95775 2.16645,-1.432222 l -0.19834,0.167824 c 0,0 0.28082,-0.221875 0.36807,-0.282249 0.0414,-0.0336 0.0579,-0.03989 0.0973,-0.07247 0.36198,-0.256307 1.12458,-0.832256 1.99672,-1.724006 4.79892,2.099872 8.58391,2.45805 8.90419,2.48684 1.00863,0.211573 6.93864,1.357833 14.44999,-0.556869 6.93499,-1.455904 11.8018,-4.753898 11.98032,-4.87642 0.32476,-0.182278 1.2545,-0.722538 2.50972,-1.645815 0.18998,0.633342 0.43903,1.312325 0.76665,2.000533 1.30977,2.751398 4.72002,6.340381 9.41719,7.210694 0.0482,0.0094 0.0965,0.01827 0.14494,0.0267 7.75017,1.280727 13.80747,-2.266653 15.43787,-3.036081 l 0.008,-0.0038 c 1.05692,-0.495419 2.83567,-1.08986 3.18865,-1.209092 0.28399,-0.05836 1.6167,-0.339165 2.89305,-0.448166 0.0261,-0.0018 0.0521,-0.0037 0.0782,-0.0057 2.80704,-0.269513 4.87141,-0.668187 6.36204,-1.056526 0.80579,-0.209925 1.58871,-0.488209 2.13785,-0.6999 0.009,-0.0029 0.0176,-0.0047 0.0267,-0.0076 0.76298,0.519794 1.46979,0.942635 2.1264,1.289191 0.64183,0.33875 1.11058,0.511272 1.58097,0.697993 -0.35484,-0.235588 -0.44564,-0.206693 -1.29872,-0.964986 0.56244,0.500252 1.19698,0.912992 1.88229,1.22435 0.006,0.002 0.0212,0.0075 0.0267,0.0095 8.11902,3.663933 16.04532,2.06644 17.58334,1.701121 2.20867,-0.31137 9.66127,-1.669398 17.23624,-6.539399 1.88994,3.945993 6.69097,8.180522 13.14173,9.106338 0.36632,0.05268 0.73603,0.07818 1.10611,0.07628 5.18557,-0.02921 10.04738,-3.040477 12.15577,-6.424974 0.76158,-1.222532 1.06004,-2.308982 1.40553,-3.396521 1.98538,1.664706 3.92907,3.299375 6.26287,5.236859 0.0503,0.04135 0.10118,0.08203 0.15256,0.122054 3.112,2.448928 4.07345,3.016951 4.5465,3.31833 0.20541,0.180834 0.26434,0.27713 0.45579,0.410024 0.0976,0.06777 0.24016,0.108012 0.34328,0.173545 8.1e-4,4.96e-4 0.0839,0.06103 0.0839,0.06103 l -0.0572,-0.04768 c 0.60648,0.382952 1.25825,0.752297 2.01579,1.01457 1.58435,0.548528 3.41024,0.688636 5.36463,0.54352 5.89383,-0.0084 8.74576,-3.274817 9.27225,-3.949576 1.41018,-1.213349 4.42911,-4.300012 5.39706,-9.161643 1.61549,-8.018312 -5.58776,-13.635667 -5.58776,-13.635667 l 0.70562,0.503471 c 0,0 -6.14684,-4.99294 -10.65489,-8.64673 2.40722,-1.67087 8.61048,-6.703188 10.5786,-15.594245 1.49675,-5.838209 -0.014,-11.310413 -2.25989,-14.537719 -1.50709,-2.16568 -3.40084,-3.618431 -4.50263,-4.351971 0,0 -3.75425,-2.8162968 -8.05172,-4.7696233 -8.38137,-4.061075 -16.40159,-3.9358067 -18.66084,-3.8027302 -2.96612,-0.035135 -14.85597,0.4823982 -22.96704,10.4832535 -0.0394,0.04909 -0.0782,0.09868 -0.11634,0.148753 -0.63932,0.830262 -1.16887,1.672067 -1.60386,2.51354 -4.03772,-1.948703 -7.3984,-2.657734 -8.45983,-2.84728 -0.81415,-0.191719 -2.04441,-0.438645 -3.40606,-0.566405 -1.20695,-0.113244 -2.6499,-0.177471 -4.3329,-0.141124 -1.68299,0.03635 -3.60612,0.173171 -5.77084,0.461515 -0.13788,0.01779 -0.27525,0.03941 -0.41193,0.06484 -15.07922,2.871673 -22.41342,14.025825 -24.1933,17.137078 l 0.0667,-0.123961 c 0,0 -3.97323,6.030276 -4.63231,14.678844 -0.58602,0.116858 -0.97052,0.21684 -1.22435,0.278434 -0.0987,-2.2907 -0.23077,-4.903017 -0.17736,-5.849034 0.006,-0.09399 0.0107,-0.18809 0.0134,-0.282248 0.14808,-7.958071 -0.45873,-14.156835 -0.51682,-14.739871 0.005,-0.108943 0.38919,-9.307707 -6.30102,-16.7098905 -0.0775,-0.085737 -0.15699,-0.1696714 -0.23838,-0.2517354 -3.37723,-3.4056731 -7.73294,-5.3872274 -11.66946,-5.2483016 -3.93653,0.1389257 -6.63204,1.9629593 -7.54253,2.5116327 -0.406,0.2449339 -0.78785,0.527813 -1.14044,0.8448393 -2.75002,2.4690965 -4.3055,5.5766985 -4.99847,8.3740165 -1.74902,-0.746122 -3.67108,-1.394118 -5.7594,-1.865131 -0.0387,-0.0086 -0.0775,-0.01684 -0.11633,-0.02479 -2.69869,-0.564431 -5.25841,-0.681925 -7.58449,-0.539705 -5.55008,0.339339 -9.75406,2.154964 -11.24227,2.883514 -0.40768,0.169832 -1.21671,0.524097 -2.28088,1.079411 -1.37445,-5.2202198 -5.06038,-9.1695073 -8.49797,-11.0916142 -3.94082,-2.2034762 -7.73247,-2.73588587 -8.89084,-3.00366097 -0.12078,-0.0277977 -0.24224,-0.0525974 -0.36425,-0.0743764 -1.62142,-0.2911124 -3.18556,-0.43038888 -4.68381,-0.45007238 z M 47.747721,2.7652752 C 46.200206,2.7066286 44.686482,2.7232163 43.208855,2.8072311 33.360636,3.3671807 25.11741,6.8867846 19.179567,10.561444 h -0.0057 C 5.792933,18.842935 -1.4390834,33.279643 0.24029288,50.106787 v 0.0019 C 2.2545793,70.236085 24.280814,82.487452 44.942397,76.489419 c 1.125826,0.636268 2.39703,0.970657 3.690212,0.970707 h 12.493323 c 2.950671,-1.37e-4 5.627141,-1.730214 6.838811,-4.420626 l 5.849034,-12.981537 h 2.677549 l 1.966207,11.198411 c 0.629808,3.587416 3.745771,6.203892 7.388052,6.203752 h 20.331445 c 3.26546,-6.33e-4 6.15529,-2.113829 7.14586,-5.225416 l 1.63055,-5.114806 0.88489,4.338622 c 0.71236,3.492241 3.78386,6.000936 7.34801,6.0016 h 7.97543 c 2.99253,-6.7e-4 5.69833,-1.780052 6.88458,-4.527423 l 2.61271,-6.056906 0.15257,3.415592 c 0.17764,4.009324 3.47968,7.168492 7.49294,7.168737 h 11.95552 c 0.16321,-0.06364 0.32414,-0.132968 0.4825,-0.207872 0.14644,0.07416 0.29527,0.143483 0.44626,0.207872 h 33.35494 c 0.75619,-0.18264 1.47936,-0.481816 2.14356,-0.886795 0.92096,-0.192029 1.79758,-0.555614 2.5841,-1.071782 0.63213,-0.694171 1.12831,-1.500858 1.46274,-2.378137 0.50578,-0.592057 0.91627,-1.259267 1.21672,-1.977649 l 1.99863,-12.489508 c 0.21102,-2.629132 -0.97437,-5.175886 -3.1219,-6.707223 1.01992,-0.999904 1.73315,-2.270228 2.05583,-3.661606 l 1.99482,-12.493322 c 0.10525,-1.695417 -0.3681,-3.376353 -1.34259,-4.767716 2.72399,-0.695775 4.83017,-2.856431 5.45617,-5.597299 l 1.99672,-12.487601 c 0.72726,-4.5565183 -2.79293,-8.6830392 -7.40712,-8.6829642 h -33.08795 c -2.84129,0.1846063 -5.33308,1.9620309 -6.4326,4.5884498 -1.08176,-2.5927177 -3.52166,-4.3635785 -6.32199,-4.5884498 H 143.3881 c -3.00745,2.1e-5 -5.72411,1.7963656 -6.90174,4.5636577 l -3.78748,8.9041865 -1.34259,-7.321305 c -0.65355,-3.560424 -3.7567,-6.1461143 -7.37661,-6.1465392 h -11.82202 c -3.24875,3e-4 -6.12801,2.0919984 -7.13251,5.1815536 L 96.431821,10.52521 C 95.828562,6.9085167 92.698985,4.2580551 89.032326,4.2585238 H 74.284828 c -2.972679,7.69e-5 -5.664815,1.7556881 -6.863604,4.4759317 L 66.967337,9.762375 C 66.140527,7.8091531 64.525423,6.297289 62.521919,5.6011126 57.337088,3.801675 52.390267,2.9412151 47.747721,2.7652752 Z M 286.4806,4.218475 C 277.44372,4.310056 269.01721,8.7529931 262.79841,15.815467 258.42577,8.6501619 251.68847,4.7092361 244.20241,4.5789143 h -0.01 c -6.68766,-0.1076485 -22.16695,-0.00164 -22.41017,0 -0.001,9.3e-6 -0.12738,-2.6e-6 -0.12777,0 h -0.0477 c -0.41201,0.1964357 -0.80523,0.4300695 -1.17477,0.6979936 -1.59649,0.344702 -3.03683,1.2011347 -4.10214,2.4391635 -0.45458,0.5474804 -0.82895,1.1568639 -1.11183,1.8098249 -0.32923,0.4249038 -0.61183,0.8839707 -0.84293,1.3692877 l -9.22839,57.767553 c -0.72594,4.555813 2.79383,8.680945 7.40712,8.681057 h 26.90136 c 8.05274,0 15.23567,-4.072951 20.26088,-10.441298 4.06828,5.369758 9.71299,9.33267 16.64696,10.935233 10.82979,2.502764 21.3564,-1.551515 29.00869,-9.373329 l -0.0515,0.326112 c -0.71687,4.551635 2.80129,8.667469 7.40903,8.667707 h 11.96315 c 3.70953,1.15e-4 6.86199,-2.71138 7.41666,-6.379204 l 3.43276,-22.749633 20.68044,-32.55015 c 0.21678,-0.670019 0.33812,-1.367232 0.36044,-2.071095 0.36004,-0.608328 0.63227,-1.264502 0.80861,-1.949043 -0.0941,-0.270495 -0.20362,-0.535378 -0.32802,-0.793347 -0.19182,-0.91234 -0.55206,-1.7809201 -1.06225,-2.5612174 -0.38548,-0.8518873 -0.92686,-1.62418 -1.59623,-2.2770612 -0.15056,-0.2424723 -0.31484,-0.4761526 -0.49203,-0.6999006 -0.67054,-0.2176077 -1.3684,-0.3395904 -2.073,-0.3623464 -0.60843,-0.3593745 -1.2646,-0.6309591 -1.94904,-0.8066976 h -13.95415 c -2.59115,1.778e-4 -4.99871,1.3377076 -6.36777,3.5376452 l -3.92478,6.306735 -1.98909,-5.0785714 c -1.12551,-2.8742808 -3.89696,-4.7655559 -6.98375,-4.7658088 h -13.68716 c -1.96687,-3.46e-5 -3.85506,0.7724993 -5.25784,2.1511934 -1.44466,-0.6001844 -2.95837,-1.087455 -4.54077,-1.4531998 h -0.004 C 290.92721,4.4353358 288.68605,4.1961247 286.4806,4.218475 Z"
   sodipodi:nodetypes="scsccssccccccscccccccccscccccccsccsccccccscsccccssccscccccccscccccccsscccccccccscscccccsccsccsssccccccccccccccccccccccccccccccccccccccccccccccccccccccsscccsccccccccsccccccccccccccccccscccccccs" />
    
    
    <path
   style="baseline-shift:baseline;display:inline;overflow:visible;vector-effect:none;fill:#2d288b;stroke-linecap:round;stroke-linejoin:round;paint-order:markers stroke fill;enable-background:accumulate;stop-color:#000000"
   d="m 448.51915,33.830351 c -1.192,-3.612 -4.341,-7.049 -4.341,-7.049 0,0 -4.731,-6.146 -14.024,-8.242 -7.956,-1.664 -14.208,1.845 -14.208,1.845 0,0 -5.677,2.275 -9.943,6.978 -6.796,6.542 -8.749,16.088 -8.749,16.088 0,0 -2.604,8.314 1.521,14.896 l 4.482,5.422 c 6.326,5.279 13.087,5.819 13.087,5.819 0,0 5.46,1.229 11.824,-0.434 5.563,-1.122 9.614,-3.869 9.614,-3.869 0,0 9.222,-5.097 11.749,-15.509 z m -14.357,17.317 c 0,0 -3.686,6.437 -11.782,5.675 -9.51,-0.975 -10.628,-9.325 -10.628,-9.325 0,0 -1.305,-6.146 4.553,-11.498 5.931,-4.987 12.113,-4.229 12.113,-4.229 0,0 4.154,0.397 6.292,7.268 2.744,8.747 -0.548,12.109 -0.548,12.109"
   id="path10" />
    <path
   style="baseline-shift:baseline;display:inline;overflow:visible;vector-effect:none;fill:#94012c;stroke-linecap:round;stroke-linejoin:round;paint-order:markers stroke fill;enable-background:accumulate;stop-color:#000000"
   d="m 398.77215,58.343351 c -3.229,-0.969 -6.938,-0.327 -6.938,-0.327 0,0 -10.485,1.011 -15.945,-0.146 -8.457,-1.48 -8.174,-10.592 -8.174,-10.592 0,0 -0.283,-6.039 4.813,-14.208 6.289,-10.088 13.23,-11.895 13.23,-11.895 0,0 1.733,-0.649 3.36,0.217 1.013,5.854 6.688,5.818 6.688,5.818 0,0 8.171,0.545 7.771,-9.359 -0.938,-8.138 -8.782,-9.257 -12.074,-10.018 -9.864,-1.771 -16.269,3.508 -16.269,3.508 0,0 -6.614,3.578 -14.531,16.051 -5.391,7.735 -6.04,13.811 -6.04,13.811 0,0 -0.649,1.446 -0.396,7.883 -0.145,5.023 1.737,8.676 1.737,8.676 0,0 2.854,8.645 11.891,12.187 5.497,2.276 13.525,2.241 13.525,2.241 0,0 7.771,-0.108 13.733,-0.435 3.255,0.252 4.812,-1.447 4.812,-1.447 0,0 3.648,-2.385 3.289,-6.543 0,0 -0.708,-4.295 -4.482,-5.422"
   id="path14" />
    
    
    
    <path
   style="baseline-shift:baseline;display:inline;overflow:visible;vector-effect:none;fill:#2e3192;stroke-linecap:round;stroke-linejoin:round;paint-order:markers stroke fill;enable-background:accumulate;stop-color:#000000"
   d="m 232.06715,24.348351 h 7.786 c 8.439,0 6.727,10.812 -1.316,10.812 h -8.313 z m -3.689,22.679 h 10.021 c 9.499,0 9.233,11.605 -1.317,11.605 h -10.55 z m -6.595,-34.949 -9.229,57.767 h 26.903 c 11.076,0 27.276,-16.326 12.531,-29.672 15.162,-15.692 0.126,-27.955 -7.916,-28.095 -6.461,-0.104 -22.416,0 -22.416,0 h 0.127 m -198.663003,4.861 c -11.396,7.053 -16.8759995,17.803 -15.4169995,32.422 1.697,16.957 23.6559995,27.64 42.2589995,16.879 1.629,-0.94 0.992,-0.792 1.595,-1.331 l 3.723,-23.656 h -22.194 l -1.702,10.897 h 9.276 l -1.065,5.85 c -5.314,2.125 -14.352,1.327 -18.204,-5.582 -2.44,-4.376 -4.703,-14.142 5.583,-23.124 8.369,-7.309 22.856,-8.633 31.23,-4.78 0,0 1.062,-6.111 1.857,-11.829 -16.078,-5.58 -28.571,-0.927 -36.941,4.254"
   id="path20" />
    <path
   style="baseline-shift:baseline;display:inline;overflow:visible;vector-effect:none;fill:#2e3192;stroke-linecap:round;stroke-linejoin:round;paint-order:markers stroke fill;enable-background:accumulate;stop-color:#000000"
   d="m 160.26015,69.959351 h -11.956 l -1.598,-36.012 -15.545,36.012 h -7.975 l -6.642,-32.557 -10.367,32.557 H 85.846147 l -3.057,-17.403 h -13.822 l -7.84,17.403 h -12.495 l 25.652,-58.2 h 14.749 l 7.839,47.04 15.285003,-47.041 h 11.823 l 5.848,31.893 13.56,-31.893 h 14.351 z m -79.273003,-28.707 -2.189,-11.29 -5.049,11.29 h 7.238 m 113.557003,28.707 1.998,-12.488 h -20.866 l 1.654,-10.365 h 18.148 l 1.994,-12.495 h -18.341 l 1.594,-10.366 h 20.861 l 1.995,-12.486 h -33.087 l -9.305,58.2 h 33.355 m 155.347,-58.201 h -13.954 l -11.827,19 -7.438,-19 h -13.688 l 14.084,30.692 -4.339,27.508 h 11.963 l 3.671,-24.315 21.528,-33.885"
   id="path16" />
    <path
   style="baseline-shift:baseline;display:inline;overflow:visible;vector-effect:none;fill:#2e3192;stroke-linecap:round;stroke-linejoin:round;paint-order:markers stroke fill;enable-background:accumulate;stop-color:#000000"
   d="m 260.77815,35.853351 c 3.714,-16.093 17.469,-26.654 30.717,-23.591 13.256,3.063 20.989,18.586 17.278,34.679 -3.714,16.089 -17.467,26.652 -30.721,23.589 -13.253,-3.063 -20.985,-18.59 -17.274,-34.677 z m 18.099,23.023 c 6.327,2.83 14.078,-2.721 17.302,-12.398 3.223,-9.685 0.714,-19.828 -5.614,-22.659 -6.328,-2.832 -14.069,2.722 -17.298,12.404 -3.227,9.683 -0.713,19.821 5.61,22.653"
   id="path18" />
    
    <path
   style="baseline-shift:baseline;display:inline;overflow:visible;vector-effect:none;fill:#639d01;stroke-linecap:round;stroke-linejoin:round;paint-order:markers stroke fill;enable-background:accumulate;stop-color:#000000"
   d="m 479.24515,51.258351 c -3.044,-0.672 -7.917,0.575 -7.917,0.575 0,0 -6.796,2.493 -7.845,2.458 -0.396,-0.577 -1.263,-11.677 -1.012,-16.123 0.146,-7.846 -0.509,-14.243 -0.509,-14.243 0,0 -0.323,-7.558 -4.373,-12.039 -4.771,-4.811 -8.101,-2.747 -10.016,-1.593 -4.591,4.122 -2.457,9.146 -2.457,9.146 l 2.389,6.762 c 0,0 1.155,2.894 1.012,7.628 l 1.012,15.944 c 0,2.133 1.737,16.484 1.737,16.484 0,0 0.176,4.665 4.661,5.496 4.593,0.759 9.109,-1.52 11.025,-2.423 1.917,-0.901 4.447,-1.697 4.447,-1.697 0,0 2.098,-0.471 4.194,-0.65 4.916,-0.472 6.688,-1.338 6.688,-1.338 0,0 1.901,-0.286 3.184,-2.099 1.278,-1.81 2.826,-10.302 -6.22,-12.288"
   id="path12" />
    
    <path
   style="baseline-shift:baseline;display:inline;overflow:visible;vector-effect:none;fill:#c8a601;stroke-linecap:round;stroke-linejoin:round;paint-order:markers stroke fill;enable-background:accumulate;stop-color:#000000"
   d="m 530.11415,31.914351 c -6.325,-10.339 -17.46,-11.894 -17.46,-11.894 0,0 -3.543,-1.194 -11.133,-0.183 -14.246,2.713 -19.2,13.667 -19.2,13.667 0,0 -5.099,8.024 -3.074,17.75 l 6.224,12.292 c 4.59,4.302 6.469,4.302 6.757,4.558 6.076,2.747 13.125,1.156 13.125,1.156 0,0 8.895,-0.867 17.029,-7.194 6.506,-4.771 9.326,-11.786 9.326,-11.786 l 0.863,-9.41 z m -17.316,21.113 c -10.231,6.146 -16.668,-0.579 -16.668,-0.579 0,0 -2.855,-1.88 -3.47,-7.593 -0.438,-6.615 6.146,-10.05 6.146,-10.05 0,0 3.471,-2.134 7.81,-1.808 4.339,0.324 5.708,0.035 9.219,2.64 3.324,3.002 3.107,5.206 3.107,5.206 0,0 1.195,7.449 -6.144,12.184"
   id="path22" />
    <path
   style="baseline-shift:baseline;display:inline;overflow:visible;vector-effect:none;fill:#00766a;stroke-linecap:round;stroke-linejoin:round;paint-order:markers stroke fill;enable-background:accumulate;stop-color:#000000"
   d="m 531.70615,50.280351 c 0,0 0.218,5.783 -0.688,7.194 -1.229,2.639 -1.047,5.206 -1.047,5.206 0,0 -0.835,7.809 8.209,9.107 6.214,-0.035 6.971,-5.206 7.081,-7.411 0.36,-1.732 0.217,-9.798 0.217,-9.798 l 8.063,6.581 c 0,0 5.856,4.917 9.295,7.772 3.581,2.818 4.479,3.325 4.479,3.325 0,0 0.763,0.901 3.506,0.577 2.211,0.038 4.234,-1.952 4.234,-1.952 0,0 2.563,-1.875 3.214,-5.167 0.795,-3.905 -2.24,-5.821 -2.24,-5.821 0,0 -11.205,-9.039 -18.798,-15.258 5.097,-2.783 7.556,-4.699 7.556,-4.699 0,0 7.088,-4.698 8.604,-11.896 2.099,-7.918 -3.867,-11.024 -3.867,-11.024 0,0 -3.726,-2.676 -6.87,-4.087 -7.92,-3.868 -15.293,-3.073 -15.293,-3.073 0,0 -10.483,-0.722 -17.316,7.703 -3.144,4.083 -1.19,9.436 -1.19,9.436 0,0 0.388,0.857 1.263,4.916 1.753,8.167 1.588,18.369 1.588,18.369 z m 13.738,-16.053 -0.688,-9.435 c 0,0 6.614,-0.146 9.363,0.324 5.426,0.831 5.134,2.352 5.134,2.352 0,0 -0.181,1.915 -4.303,3.796 -4.48,2.17 -9.506,2.963 -9.506,2.963"
   id="path24" />
</svg>
